<svg version="1.1" xmlns="http://www.w3.org/2000/svg" viewBox="0 0 32 32">
<path d="M24.531 6.25h-4.469v-0.813c0-1.346-1.091-2.438-2.438-2.438h-3.25c-1.346 0-2.438 1.091-2.438 2.438v0.813h-4.469c-1.122 0-2.031 0.909-2.031 2.031v1.625c0 0.449 0.364 0.813 0.813 0.813h19.5c0.449 0 0.813-0.364 0.813-0.813v-1.625c0-1.122-0.91-2.031-2.031-2.031zM13.563 5.438c0-0.448 0.365-0.813 0.813-0.813h3.25c0.448 0 0.813 0.365 0.813 0.813v0.813h-4.875z"></path>
<path d="M6.979 12.344c-0.145 0-0.26 0.121-0.254 0.266l0.67 14.069c0.062 1.302 1.131 2.322 2.434 2.322h12.339c1.303 0 2.372-1.020 2.434-2.322l0.67-14.069c0.007-0.145-0.109-0.266-0.254-0.266zM19.25 14.375c0-0.449 0.364-0.813 0.813-0.813s0.813 0.364 0.813 0.813v10.563c0 0.449-0.364 0.813-0.813 0.813s-0.813-0.364-0.813-0.813zM15.188 14.375c0-0.449 0.364-0.813 0.813-0.813s0.813 0.364 0.813 0.813v10.563c0 0.449-0.364 0.813-0.813 0.813s-0.813-0.364-0.813-0.813zM11.125 14.375c0-0.449 0.364-0.813 0.813-0.813s0.813 0.364 0.813 0.813v10.563c0 0.449-0.364 0.813-0.813 0.813s-0.813-0.364-0.813-0.813z"></path>
</svg>
